<?xml version="1.0" encoding="iso-8859-1"?>
<!-- Generator: Adobe Illustrator 19.0.0, SVG Export Plug-In . SVG Version: 6.00 Build 0)  -->
<svg version="1.1" id="Capa_1" xmlns="http://www.w3.org/2000/svg" xmlns:xlink="http://www.w3.org/1999/xlink" x="0px" y="0px"
	 viewBox="0 0 512 512" style="enable-background:new 0 0 512 512;" xml:space="preserve">
<polygon style="fill:#CB5956;" points="481.095,512 450.189,512 416.782,403.831 481.095,403.831 "/>
<polygon style="fill:#FF5A52;" points="450.189,512 416.781,512 385.876,403.831 450.189,403.831 "/>
<polygon style="fill:#FFEFCF;" points="416.781,512 352.469,512 321.564,403.831 416.781,403.831 "/>
<polygon style="fill:#FF5A52;" points="352.468,512 288.156,512 257.251,403.831 352.468,403.831 "/>
<polygon style="fill:#FFEFCF;" points="288.156,512 223.843,512 192.937,403.831 288.156,403.831 "/>
<polygon style="fill:#FF5A52;" points="223.843,512 159.531,512 128.625,403.831 223.843,403.831 "/>
<polygon style="fill:#FFEFCF;" points="159.531,512 95.219,512 64.313,403.831 159.531,403.831 "/>
<polygon style="fill:#FF5A52;" points="95.219,512 30.905,512 30.905,434.736 95.219,403.831 "/>
<rect x="302.358" y="61.811" style="fill:#44E7FF;" width="77.264" height="280.209"/>
<polygon style="fill:#B8F6FF;" points="30.905,61.811 30.905,326.567 147.831,342.02 147.831,61.811 "/>
<g>
	<rect x="147.831" y="61.811" style="fill:#90F0FF;" width="185.433" height="280.209"/>
	<polygon style="fill:#90F0FF;" points="419.284,61.811 419.284,342.02 481.095,326.567 481.095,61.811 	"/>
</g>
<polygon style="fill:#B8F6FF;" points="364.169,61.811 364.169,326.567 450.189,342.02 450.189,61.811 "/>
<path style="fill:#FF7A4C;" d="M271.453,169.98l-30.905,92.716l41.207-15.453c11.332,0,20.604-9.272,20.604-20.604v-56.66H271.453z"
	/>
<path style="fill:#FF9944;" d="M271.453,226.64v-56.66h-61.811v56.66c0,11.332,9.272,20.604,20.604,20.604l10.302,15.453
	l10.302-15.453C262.181,247.243,271.453,237.972,271.453,226.64z"/>
<path style="fill:#CB5956;" d="M340.99,334.294h-15.453v-35.541c0-12.781-10.399-23.179-23.179-23.179H256v-15.453h46.358
	c21.302,0,38.632,17.33,38.632,38.632V334.294z"/>
<path style="fill:#FF5A52;" d="M186.463,334.294H171.01v-35.541c0-21.302,17.33-38.632,38.632-38.632H256v15.453h-46.358
	c-12.78,0-23.179,10.398-23.179,23.179V334.294z"/>
<path style="fill:#CB5956;" d="M281.755,247.243h-30.905l20.604,97.867h30.905v-77.264
	C302.358,256.468,293.134,247.243,281.755,247.243z"/>
<path style="fill:#FF5A52;" d="M250.849,247.243h-20.604c-11.379,0-20.604,9.224-20.604,20.604v77.264h61.811v-77.264
	C271.453,256.468,262.228,247.243,250.849,247.243z"/>
<polygon style="fill:#965859;" points="403.831,342.02 450.189,434.736 481.095,434.736 481.095,357.473 "/>
<polygon style="fill:#CB5956;" points="46.358,342.02 30.905,357.473 30.905,434.736 450.189,434.736 450.189,342.525 "/>
<polygon style="fill:#33ADC0;" points="450.189,326.567 419.284,342.02 450.189,357.473 481.095,357.473 481.095,326.567 "/>
<rect x="30.905" y="326.567" style="fill:#3CCAE0;" width="419.284" height="30.905"/>
<polygon style="fill:#CB5956;" points="481.095,0 450.189,46.358 481.095,92.716 512,92.716 512,0 "/>
<polygon style="fill:#FF5A52;" points="0,0 0,92.716 481.095,92.716 481.095,61.811 465.642,46.358 481.095,30.905 481.095,0 "/>
<path style="fill:#FFD9D0;" d="M256,133.924v82.414c25.603,0,46.358-20.755,46.358-46.358c0-5.42-0.939-10.618-2.649-15.453
	L256,133.924z"/>
<path style="fill:#FFFFFF;" d="M212.29,154.527c-1.709,4.835-2.649,10.033-2.649,15.453c0,25.603,20.755,46.358,46.358,46.358
	c8.534,0,15.453-20.755,15.453-46.358c0-5.42-0.313-10.618-0.883-15.453L256,133.924L212.29,154.527z"/>
<path style="fill:#FF7A4C;" d="M256,123.622l14.57,30.905h29.14C293.344,136.524,276.183,123.622,256,123.622z"/>
<path style="fill:#FF9944;" d="M256,123.622c-20.183,0-37.345,12.902-43.71,30.905h58.279
	C268.448,136.524,262.727,123.622,256,123.622z"/>
<polygon style="fill:#FFEFCF;" points="450.189,30.905 419.284,46.358 450.189,61.811 481.095,61.811 481.095,30.905 "/>
<rect x="30.905" y="30.905" style="fill:#FFFFFF;" width="419.284" height="30.905"/>
<g>
	<path style="fill:#3CCAE0;" d="M89.368,171.525c-4.268,0-7.726,3.459-7.726,7.726v82.414h15.453v-82.414
		C97.095,174.984,93.636,171.525,89.368,171.525z"/>
	<path style="fill:#3CCAE0;" d="M422.632,171.525c-4.268,0-7.726,3.459-7.726,7.726v82.414h15.453v-82.414
		C430.358,174.984,426.9,171.525,422.632,171.525z"/>
</g>
<path style="fill:#965859;" d="M89.368,241.062l-11.847,27.3l11.847,27.3c15.077,0,27.3-12.222,27.3-27.3
	C116.668,253.285,104.445,241.062,89.368,241.062z"/>
<path style="fill:#FF5A52;" d="M62.068,268.362c0,15.078,12.223,27.3,27.3,27.3v-54.6C74.29,241.062,62.068,253.285,62.068,268.362z
	"/>
<path style="fill:#965859;" d="M422.632,241.062l-11.847,27.3l11.847,27.3c15.077,0,27.3-12.222,27.3-27.3
	C449.932,253.285,437.708,241.062,422.632,241.062z"/>
<path style="fill:#FF5A52;" d="M395.332,268.362c0,15.078,12.223,27.3,27.3,27.3v-54.6
	C407.554,241.062,395.332,253.285,395.332,268.362z"/>
<path style="fill:#FFFFFF;" d="M302.358,301.328h-30.905c-4.268,0-7.726-3.459-7.726-7.726c0-4.267,3.458-7.726,7.726-7.726h30.905
	c4.268,0,7.726,3.459,7.726,7.726C310.085,297.869,306.626,301.328,302.358,301.328z"/>
<g>
	<path style="fill:#965859;" d="M106.624,303.388H72.113c-4.268,0-7.726-3.459-7.726-7.726s3.458-7.726,7.726-7.726h34.511
		c4.268,0,7.726,3.459,7.726,7.726S110.892,303.388,106.624,303.388z"/>
	<path style="fill:#965859;" d="M439.887,303.388h-34.511c-4.268,0-7.726-3.459-7.726-7.726s3.458-7.726,7.726-7.726h34.511
		c4.268,0,7.726,3.459,7.726,7.726S444.155,303.388,439.887,303.388z"/>
</g>
<g>
</g>
<g>
</g>
<g>
</g>
<g>
</g>
<g>
</g>
<g>
</g>
<g>
</g>
<g>
</g>
<g>
</g>
<g>
</g>
<g>
</g>
<g>
</g>
<g>
</g>
<g>
</g>
<g>
</g>
</svg>
