<svg height="512pt" viewBox="0 0 512 512.001" width="512pt" xmlns="http://www.w3.org/2000/svg"><path d="m321.777344 386.988281c-2.132813-2.214843-5.109375-3.488281-8.167969-3.488281h-115.21875c-3.058594 0-6.03125 1.273438-8.164063 3.488281-1.0625 1.101563-2.730468 2.132813-4.699218 2.902344-4.269532 1.667969-7.027344 5.707031-7.027344 10.292969v35.636718c0 4.585938 2.757812 8.625 7.027344 10.292969 1.96875.769531 3.636718 1.800781 4.699218 2.902344 2.132813 2.214844 5.105469 3.488281 8.164063 3.488281h115.21875c3.058594 0 6.035156-1.273437 8.167969-3.488281 1.058594-1.101563 2.726562-2.132813 4.695312-2.902344 4.269532-1.667969 7.027344-5.707031 7.027344-10.292969v-35.636718c0-4.585938-2.757812-8.625-7.027344-10.292969-1.96875-.769531-3.636718-1.800781-4.695312-2.902344zm-3.277344 46.257813c-2.410156 1.183594-4.574219 2.621094-6.382812 4.253906h-112.234376c-1.808593-1.632812-3.96875-3.070312-6.382812-4.253906v-30.488282c2.414062-1.183593 4.574219-2.625 6.382812-4.257812h112.234376c1.808593 1.632812 3.972656 3.074219 6.382812 4.257812zm0 0"/><path d="m256 246c21.78125 0 39.5-17.71875 39.5-39.5 0-21.777344-17.71875-39.5-39.5-39.5s-39.5 17.722656-39.5 39.5c0 21.78125 17.71875 39.5 39.5 39.5zm0-64c13.511719 0 24.5 10.992188 24.5 24.5 0 13.511719-10.988281 24.5-24.5 24.5-13.507812 0-24.5-10.988281-24.5-24.5 0-13.507812 10.992188-24.5 24.5-24.5zm0 0"/><path d="m489.5 467h-46v-19.332031c0-4.140625-3.355469-7.5-7.5-7.5-4.140625 0-7.5 3.359375-7.5 7.5v19.332031h-345v-96.5h345v45c0 4.144531 3.359375 7.5 7.5 7.5 4.144531 0 7.5-3.355469 7.5-7.5v-45h3.5c6.339844 0 11.5-5.15625 11.5-11.5v-22c0-6.339844-5.160156-11.5-11.5-11.5h-6.5v-181h6.152344c6.53125 0 11.847656-5.3125 11.847656-11.847656v-31.304688c0-6.53125-5.316406-11.847656-11.847656-11.847656h-6.152344v-82c0-4.140625-3.355469-7.5-7.5-7.5h-354c-4.140625 0-7.5 3.359375-7.5 7.5v82h-6.152344c-6.53125 0-11.847656 5.316406-11.847656 11.847656v31.304688c0 6.53125 5.316406 11.847656 11.847656 11.847656h6.152344v15c0 4.144531 3.359375 7.5 7.5 7.5 4.144531 0 7.5-3.355469 7.5-7.5v-15h15v181h-15v-133.5c0-4.140625-3.355469-7.5-7.5-7.5-4.140625 0-7.5 3.359375-7.5 7.5v133.5h-6.5c-6.339844 0-11.5 5.160156-11.5 11.5v22c0 6.34375 5.160156 11.5 11.5 11.5h3.5v96.5h-46c-12.40625 0-22.5 10.09375-22.5 22.5s10.09375 22.5 22.5 22.5h467c12.40625 0 22.5-10.09375 22.5-22.5s-10.09375-22.5-22.5-22.5zm-64-141.5h-15v-181h15zm-339-310.5h339v74.5h-15v-52c0-4.140625-3.355469-7.5-7.5-7.5h-19c-4.140625 0-7.5 3.359375-7.5 7.5 0 4.144531 3.359375 7.5 7.5 7.5h11.5v44.5h-279v-44.5h234.832031c4.144531 0 7.5-3.355469 7.5-7.5 0-4.140625-3.355469-7.5-7.5-7.5h-242.332031c-4.140625 0-7.5 3.359375-7.5 7.5v52h-15zm-18 114.5v-25h375v25zm48 15h279v181h-100v-24.5c0-21.777344-17.71875-39.5-39.5-39.5s-39.5 17.722656-39.5 39.5v24.5h-100zm164 181h-49v-24.5c0-13.507812 10.992188-24.5 24.5-24.5 13.511719 0 24.5 10.992188 24.5 24.5zm-212 15h375v15h-375zm421 156.5h-467c-4.136719 0-7.5-3.363281-7.5-7.5s3.363281-7.5 7.5-7.5h467c4.136719 0 7.5 3.363281 7.5 7.5s-3.363281 7.5-7.5 7.5zm0 0"/></svg>