<svg height="512.001pt" viewBox="0 0 512.001 512.001" width="512.001pt" xmlns="http://www.w3.org/2000/svg"><path d="m438.34375 113.492188h-364.6875v-109.492188c0-2.210938 1.792969-4 4-4h356.6875c2.207031 0 4 1.789062 4 4zm0 0" fill="#f54558"/><path d="m407.4375 0v113.492188h30.90625v-109.492188c0-2.210938-1.792969-4-4-4zm0 0" fill="#e64152"/><path d="m407.4375 30.90625v81.898438h-302.875v-81.898438zm0 0" fill="#c2dff5"/><path d="m376.53125 30.90625h30.90625v81.898438h-30.90625zm0 0" fill="#a4d1f5"/><path d="m73.65625 112.804688h364.6875v237.972656h-364.6875zm0 0" fill="#f54558"/><path d="m407.4375 112.804688h30.90625v237.972656h-30.90625zm0 0" fill="#e64152"/><path d="m104.5625 112.804688h302.875v237.972656h-302.875zm0 0" fill="#c2dff5"/><path d="m376.53125 112.804688h30.90625v237.972656h-30.90625zm0 0" fill="#a4d1f5"/><path d="m288.964844 350.777344h-65.929688v-48.417969c0-18.207031 14.757813-32.96875 32.964844-32.96875s32.964844 14.761719 32.964844 32.96875zm0 0" fill="#645c69"/><path d="m288.964844 205.007812c0 18.203126-14.757813 32.964844-32.964844 32.964844s-32.964844-14.761718-32.964844-32.964844c0-18.207031 14.757813-32.96875 32.964844-32.96875s32.964844 14.761719 32.964844 32.96875zm0 0" fill="#645c69"/><path d="m407.4375 23.40625h-302.875c-4.140625 0-7.5 3.355469-7.5 7.5v319.871094c0 4.140625 3.359375 7.5 7.5 7.5h302.875c4.140625 0 7.5-3.359375 7.5-7.5v-319.871094c0-4.144531-3.359375-7.5-7.5-7.5zm-7.5 319.871094h-287.875v-304.871094h287.875zm0 0" fill="#7a727d"/><path d="m70.566406 350.777344h370.867188v145.769531h-370.867188zm0 0" fill="#42a5f5"/><path d="m410.527344 350.777344h30.90625v145.769531h-30.90625zm0 0" fill="#2196f3"/><path d="m186.210938 401.128906c3.101562-1.214844 5.710937-2.871094 7.597656-4.832031.738281-.769531 1.757812-1.222656 2.84375-1.222656h118.695312c1.085938 0 2.105469.453125 2.84375 1.222656 1.886719 1.957031 4.496094 3.617187 7.597656 4.832031 1.421876.554688 2.324219 1.921875 2.324219 3.402344v36.714844c0 1.480468-.902343 2.847656-2.324219 3.40625-3.101562 1.210937-5.710937 2.871094-7.597656 4.832031-.738281.765625-1.757812 1.21875-2.84375 1.21875h-118.695312c-1.085938 0-2.105469-.453125-2.84375-1.21875-1.886719-1.960937-4.496094-3.621094-7.597656-4.832031-1.421876-.558594-2.324219-1.925782-2.324219-3.40625v-36.714844c0-1.480469.902343-2.847656 2.324219-3.402344zm0 0" fill="#fdd835"/><path d="m452.765625 366.230469h-393.53125c-2.273437 0-4.121094-1.847657-4.121094-4.121094v-22.664063c0-2.277343 1.847657-4.121093 4.121094-4.121093h393.53125c2.273437 0 4.121094 1.84375 4.121094 4.121093v22.664063c0 2.273437-1.847657 4.121094-4.121094 4.121094zm0 0" fill="#7a727d"/><path d="m452.765625 335.324219h-30.902344c2.277344 0 4.121094 1.84375 4.121094 4.121093v22.664063c0 2.277344-1.84375 4.121094-4.121094 4.121094h30.902344c2.273437 0 4.121094-1.84375 4.121094-4.121094v-22.664063c0-2.277343-1.847657-4.121093-4.121094-4.121093zm0 0" fill="#645c69"/><path d="m496.546875 512h-481.09375c-8.535156 0-15.453125-6.917969-15.453125-15.453125s6.917969-15.453125 15.453125-15.453125h481.09375c8.535156 0 15.453125 6.917969 15.453125 15.453125s-6.917969 15.453125-15.453125 15.453125zm0 0" fill="#7a727d"/><path d="m496.546875 481.09375h-30.90625c8.535156 0 15.453125 6.917969 15.453125 15.453125s-6.917969 15.453125-15.453125 15.453125h30.90625c8.535156 0 15.453125-6.917969 15.453125-15.453125s-6.917969-15.453125-15.453125-15.453125zm0 0" fill="#645c69"/><path d="m452.40625 133.40625h-392.8125c-2.472656 0-4.480469-2.003906-4.480469-4.476562v-32.25c0-2.472657 2.007813-4.480469 4.480469-4.480469h392.8125c2.472656 0 4.480469 2.007812 4.480469 4.480469v32.25c0 2.472656-2.007813 4.476562-4.480469 4.476562zm0 0" fill="#fdd835"/><path d="m452.40625 92.199219h-30.90625c2.472656 0 4.480469 2.007812 4.480469 4.480469v32.25c0 2.472656-2.007813 4.480468-4.480469 4.480468h30.90625c2.472656 0 4.480469-2.007812 4.480469-4.480468v-32.25c0-2.472657-2.007813-4.480469-4.480469-4.480469zm0 0" fill="#fbc02d"/></svg>