<svg id="Capa_1" enable-background="new 0 0 512 512" height="512" viewBox="0 0 512 512" width="512" xmlns="http://www.w3.org/2000/svg"><g><g><path d="m502 492v10h-120v-10c0-33.14 26.86-60 60-60 33.138 0 60 26.859 60 60z" fill="#ff7b79"/><circle cx="442" cy="382" fill="#fce8d0" r="30"/><path d="m436 10v276h-360v-276z" fill="#eefaff"/><path d="m316 492v10h-120v-10c0-33.14 26.86-60 60-60 33.138 0 60 26.859 60 60z" fill="#ff7b79"/><path d="m316 216v10h-120v-10c0-33.14 26.86-60 60-60 33.138 0 60 26.859 60 60z" fill="#ff7b79"/><circle cx="256" cy="106" fill="#fce8d0" r="30"/><circle cx="256" cy="382" fill="#fce8d0" r="30"/><path d="m130 492v10h-120v-10c0-33.14 26.86-60 60-60 33.138 0 60 26.859 60 60z" fill="#ff7b79"/><circle cx="70" cy="382" fill="#fce8d0" r="30"/></g><g><path d="m296 382c0-22.056-17.944-40-40-40s-40 17.944-40 40 17.944 40 40 40 40-17.944 40-40zm-40 20c-11.028 0-20-8.972-20-20s8.972-20 20-20 20 8.972 20 20-8.972 20-20 20z"/><path d="m256 422c-38.598 0-70 31.402-70 70v10c0 5.522 4.478 10 10 10h120c5.522 0 10-4.478 10-10v-10c0-38.598-31.402-70-70-70zm-50 70c0-27.57 22.43-50 50-50s50 22.43 50 50z"/><path d="m110 382c0-22.056-17.944-40-40-40s-40 17.944-40 40 17.944 40 40 40 40-17.944 40-40zm-40 20c-11.028 0-20-8.972-20-20s8.972-20 20-20 20 8.972 20 20-8.972 20-20 20z"/><path d="m10 512h120c5.522 0 10-4.478 10-10v-10c0-38.598-31.402-70-70-70s-70 31.402-70 70v10c0 5.522 4.478 10 10 10zm60-70c27.57 0 50 22.43 50 50h-100c0-27.57 22.43-50 50-50z"/><path d="m482 382c0-22.056-17.944-40-40-40s-40 17.944-40 40 17.944 40 40 40 40-17.944 40-40zm-40 20c-11.028 0-20-8.972-20-20s8.972-20 20-20 20 8.972 20 20-8.972 20-20 20z"/><path d="m442 422c-38.598 0-70 31.402-70 70v10c0 5.522 4.478 10 10 10h120c5.522 0 10-4.478 10-10v-10c0-38.598-31.402-70-70-70zm-50 70c0-27.57 22.43-50 50-50s50 22.43 50 50z"/><path d="m256 146c22.056 0 40-17.944 40-40s-17.944-40-40-40-40 17.944-40 40 17.944 40 40 40zm0-60c11.028 0 20 8.972 20 20s-8.972 20-20 20-20-8.972-20-20 8.972-20 20-20z"/><path d="m186 216v10c0 5.522 4.478 10 10 10h120c5.522 0 10-4.478 10-10v-10c0-38.598-31.402-70-70-70s-70 31.402-70 70zm70-50c27.57 0 50 22.43 50 50h-100c0-27.57 22.43-50 50-50z"/><path d="m211 0h-165c-5.522 0-10 4.478-10 10s4.478 10 10 10h20v266c0 5.522 4.478 10 10 10h360c5.522 0 10-4.478 10-10v-266h20c5.522 0 10-4.478 10-10s-4.478-10-10-10h-165c-5.522 0-10 4.478-10 10s4.478 10 10 10h125v256h-340v-256h125c5.522 0 10-4.478 10-10s-4.478-10-10-10z"/><circle cx="256" cy="10" r="10"/></g></g></svg>