<svg height="512" viewBox="0 0 512 512" width="512" xmlns="http://www.w3.org/2000/svg"><g id="flat"><path d="m96 128-16 16v72h32v-24a24 24 0 0 0 24-24v-40z" fill="#e6af89"/><path d="m136 128h-40l-16 16v40a32 32 0 0 1 -32-32v-21.578a34.422 34.422 0 0 1 5.778-19.089 34.411 34.411 0 0 1 28.638-15.333h.74a95.263 95.263 0 0 0 52.844-16 75.893 75.893 0 0 1 0 48z" fill="#7a4922"/><circle cx="112" cy="152" fill="#5b3719" r="8"/><path d="m216 344v-40l-64-16-24.4-53.674a58.559 58.559 0 0 0 -53.306-34.326 34 34 0 0 0 -18.86 5.71 34.663 34.663 0 0 0 -15.434 28.84v157.45h104l-1.4-64z" fill="#a86e09"/><path d="m416 128 16 16v72h-32v-24a24 24 0 0 1 -24-24v-40z" fill="#fdc9a6"/><path d="m184 192a72.05 72.05 0 1 1 72 72 72 72 0 0 1 -72-72z" fill="#92d1f7"/><path d="m142.94 343.65-46.94-15.65-8-64 24 56 30.6 8z" fill="#a86e09"/><path d="m142.94 343.65-46.94-15.65-8-64 24 56 30.6 8z" fill="#936108"/><path d="m371.314 123.314 4.686 4.686h40l16 16v40a16 16 0 0 0 16 16 16 16 0 0 0 16-16v-53.578a34.428 34.428 0 0 0 -5.781-19.094 34.423 34.423 0 0 0 -28.641-15.328h-46.951a16 16 0 0 0 -11.313 4.686 16 16 0 0 0 0 22.628z" fill="#ee9d0d"/><path d="m366.879 247.282 25.878-32.8a26.2 26.2 0 0 1 23.443-14.482h14.832a40.971 40.971 0 0 1 28.968 12 41.467 41.467 0 0 1 12.148 29.466c-.07 20.334-2.026 63.374-.148 94.534 2.071 34.359 8 56 8 56h-104l16-88a32 32 0 0 1 -32-32v-4.895a32 32 0 0 1 6.879-19.823z" fill="#faa6b2"/><path d="m416 267.2-32 56-104 28.8h-16l-24-40 32-16 24 5 64-17.8 16-35.2z" fill="#fdc9a6"/><circle cx="400" cy="152" fill="#5b3719" r="8"/><path d="m384 392 8 64h72l8-64z" fill="#ec9da8"/><path d="m72.007 368a8 8 0 0 1 -4.445-14.657l24-16a8 8 0 1 1 8.875 13.312l-24 16a7.962 7.962 0 0 1 -4.43 1.345z" fill="#936108"/><path d="m56 392h80v64h-80z" fill="#5b3719"/><path d="m269.607 331.464 10.393-3.464 8 22-32 7-40-13v-40l28-10 28 2-14.885 9.923a14.345 14.345 0 0 0 -5.651 16.47 14.343 14.343 0 0 0 18.143 9.071z" fill="#e6af89"/><path d="m230.483 338.386 20.439 9.118a11.632 11.632 0 0 1 6.119 14.8 11.632 11.632 0 0 1 -15.369 6.549l-20.6-8.67a11.632 11.632 0 0 1 -6.429-14.671l.162-.449a11.632 11.632 0 0 1 15.678-6.677z" fill="#fdc9a6"/><path d="m256 112a80.012 80.012 0 1 0 80 80 80.091 80.091 0 0 0 -80-80zm0 144c-4.969 0-10.838-6.26-15.317-16.337a89.843 89.843 0 0 1 -5.165-15.663h40.922c-4.848 20.153-13.695 32-20.44 32zm-23.168-48a152.558 152.558 0 0 1 -.832-16 150.65 150.65 0 0 1 .841-16h46.327a152.558 152.558 0 0 1 .832 16 150.386 150.386 0 0 1 -.841 16zm-40.832-16a63.921 63.921 0 0 1 2.025-16h22.714c-.482 5.144-.739 10.488-.739 16s.257 10.856.739 16h-22.714a63.921 63.921 0 0 1 -2.025-16zm64-64c4.969 0 10.838 6.26 15.317 16.337a89.843 89.843 0 0 1 5.165 15.663h-40.922c4.848-20.153 13.695-32 20.44-32zm39.261 48h22.714a63.871 63.871 0 0 1 -.023 32h-22.691c.482-5.144.739-10.488.739-16s-.257-10.856-.739-16zm16.129-16h-18.49a102.726 102.726 0 0 0 -8.457-25.31 64.438 64.438 0 0 1 26.947 25.31zm-83.833-25.31a102.726 102.726 0 0 0 -8.457 25.31h-18.49a64.438 64.438 0 0 1 26.947-25.31zm-26.947 89.31h18.49a102.726 102.726 0 0 0 8.457 25.31 64.438 64.438 0 0 1 -26.947-25.31zm83.8 25.364a102.627 102.627 0 0 0 8.49-25.364h18.5a64.072 64.072 0 0 1 -26.986 25.364z" fill="#5ebef7"/><path d="m390.613 311.627 25.387-44.427-28.898 63.741z" fill="#ec9da8"/></g></svg>