<svg height="512" viewBox="0 0 64 64" width="512" xmlns="http://www.w3.org/2000/svg"><g id="Layer_13" data-name="Layer 13"><path d="m19 22h3l-5 6-5-6h3a7 7 0 0 1 7-7h6v4h-6a3 3 0 0 0 -3 3z" fill="#00a04c"/><g fill="#e7b541"><path d="m23.864 61.921q-.5-.135-.992-.287l.588-1.911q.46.141.928.268z"/><path d="m32 63c-.646 0-1.289-.02-1.925-.059l.121-2q.9.054 1.8.055h.159l.018 2zm2.271-.082-.145-1.995c.652-.047 1.31-.117 1.953-.207l.279 1.98c-.688.097-1.39.172-2.087.222zm-6.287-.176c-.694-.09-1.391-.2-2.074-.341l.39-1.961c.638.127 1.291.234 1.939.318zm10.445-.409-.414-1.958c.639-.134 1.281-.292 1.907-.47l.545 1.925c-.667.189-1.356.358-2.038.503zm4.039-1.145-.676-1.883c.616-.221 1.23-.465 1.827-.726l.8 1.832c-.636.279-1.293.541-1.951.777zm3.851-1.688-.925-1.773c.583-.3 1.158-.629 1.711-.968l1.043 1.706c-.591.364-1.207.712-1.829 1.035zm3.581-2.189-1.156-1.632c.533-.378 1.06-.778 1.565-1.19l1.263 1.55c-.537.44-1.1.868-1.672 1.272zm3.255-2.654-1.363-1.457c.476-.445.943-.912 1.39-1.389l1.461 1.366c-.478.506-.978 1.005-1.486 1.48zm2.869-3.065-1.55-1.264c.416-.51.817-1.036 1.191-1.563l1.635 1.157c-.4.564-.83 1.126-1.274 1.67zm2.427-3.421-1.705-1.046c.339-.551.664-1.125.969-1.707l1.771.927c-.323.622-.672 1.236-1.033 1.826zm1.949-3.717-1.83-.8c.262-.6.507-1.21.726-1.821l1.883.677c-.24.649-.501 1.304-.779 1.944zm1.422-3.949-1.922-.547c.177-.624.336-1.265.472-1.907l1.957.416c-.151.686-.321 1.371-.511 2.038zm.868-4.105-1.98-.281c.093-.65.163-1.307.211-1.953l1.994.147c-.051.687-.126 1.387-.225 2.087zm.31-4.194h-2v-.206q0-.889-.053-1.767l2-.119q.053.936.053 1.886zm-2.237-3.93c-.082-.641-.189-1.295-.316-1.941l1.963-.386c.135.69.248 1.387.337 2.072z"/><path d="m59.991 24.389q-.127-.468-.269-.93l1.912-.587q.15.492.287.991z"/><path d="m40.542 4.278c-.309-.094-.618-.184-.93-.269l.524-1.93q.5.135.992.287z"/><path d="m1.59 38.05c-.135-.69-.248-1.387-.337-2.072l1.984-.255c.082.641.189 1.3.316 1.941zm-.533-4.164q-.057-.936-.057-1.886v-.207h2v.221c0 .579.018 1.168.053 1.753zm2.022-4.051-1.994-.147c.051-.69.126-1.393.225-2.087l1.98.281c-.09.65-.163 1.307-.211 1.953zm.553-3.885-1.955-.419c.147-.69.317-1.375.506-2.036l1.923.547c-.175.619-.335 1.258-.474 1.908zm1.076-3.779-1.883-.671c.236-.654.5-1.31.779-1.949l1.83.8c-.262.597-.507 1.209-.726 1.82zm1.575-3.589-1.771-.927c.325-.622.674-1.237 1.035-1.826l1.705 1.046c-.339.551-.664 1.125-.969 1.707zm2.051-3.347-1.634-1.157c.4-.564.828-1.126 1.272-1.67l1.55 1.263c-.413.51-.814 1.037-1.188 1.564zm2.483-3.042-1.459-1.367c.477-.509.977-1.008 1.486-1.484l1.365 1.458c-.477.449-.944.917-1.392 1.393zm2.873-2.683-1.263-1.55c.539-.44 1.1-.868 1.672-1.272l1.156 1.632c-.533.38-1.055.78-1.565 1.19zm3.21-2.272-1.047-1.706c.591-.362 1.207-.71 1.829-1.035l.925 1.774c-.583.303-1.158.629-1.707.967zm3.486-1.817-.8-1.832c.639-.279 1.3-.541 1.954-.777l.676 1.882c-.623.221-1.237.466-1.834.727zm3.7-1.326-.552-1.925c.67-.19 1.356-.358 2.038-.5l.414 1.957c-.639.132-1.281.29-1.907.473zm13.614-.535c-.639-.128-1.292-.234-1.938-.318l.256-1.983c.691.089 1.388.2 2.073.34zm-9.778-.276-.279-1.984c.688-.1 1.39-.172 2.087-.222l.145 2c-.652.046-1.31.116-1.953.206zm5.878-.229q-.891-.055-1.8-.055h-.158l-.018-2h.176q.969 0 1.927.059z"/><path d="m2.367 41.13c-.1-.329-.2-.659-.288-.993l1.93-.526c.085.311.173.62.268.927z"/></g><circle cx="47" cy="17" fill="#4197cd" r="15"/><path d="m47 2a14.938 14.938 0 0 0 -9.559 3.441 15 15 0 0 0 21.118 21.118 15 15 0 0 0 -11.559-24.559z" fill="#50bae3"/><path d="m38 12h18v6h-18z" fill="#724118"/><path d="m40 14a2 2 0 0 0 2 2h14v-4h-16z" fill="#874c21"/><path d="m39 18v6h16v-6" fill="#4c2b10"/><path d="m39 19h16v5h-16z" fill="#603813"/><path d="m51 12h-2v-3h-4v3h-2v-4a1 1 0 0 1 1-1h6a1 1 0 0 1 1 1z" fill="#3d3d3d"/><circle cx="17" cy="47" fill="#909193" r="15"/><path d="m17 32a14.938 14.938 0 0 0 -9.559 3.441 15 15 0 0 0 21.118 21.118 15 15 0 0 0 -11.559-24.559z" fill="#b2b2b2"/><path d="m8 42h18v6h-18z" fill="#724118"/><path d="m10 44a2 2 0 0 0 2 2h14v-4h-16z" fill="#874c21"/><path d="m9 48v6h16v-6" fill="#4c2b10"/><path d="m9 49h16v5h-16z" fill="#603813"/><path d="m21 42h-2v-3h-4v3h-2v-4a1 1 0 0 1 1-1h6a1 1 0 0 1 1 1z" fill="#3d3d3d"/><path d="m17 22v6l5-6h-3a3 3 0 0 1 3-3h6v-2h-6a5 5 0 0 0 -5 5z" fill="#008442"/><path d="m45 42h-3l5-6 5 6h-3a7 7 0 0 1 -7 7h-6v-4h6a3 3 0 0 0 3-3z" fill="#ce414b"/><path d="m47 42v-6l-5 6h3a3 3 0 0 1 -3 3h-6v2h6a5 5 0 0 0 5-5z" fill="#c1272d"/></g></svg>